<svg xmlns="http://www.w3.org/2000/svg" width="32" height="33" viewBox="0 0 32 33" fill="none">
  <path fill-rule="evenodd" clip-rule="evenodd" d="M26.6432 0C26.897 0 27.1224 0.116293 27.2916 0.290748L31.718 4.82642C31.9154 5.00087 32 5.23349 32 5.49516V20.9049C32 27.5921 26.7278 33 20.2713 33H5.32855C5.075 33 4.8494 32.8837 4.6802 32.7093L0.281999 28.1736C0.0845996 27.9991 0 27.7665 0 27.5048V12.0951C0 5.40792 5.24395 0 11.7005 0H26.6432ZM4.2854 28.2317V12.0951C4.2854 7.85022 7.61225 4.41938 11.7287 4.3903H23.119C23.2882 4.3903 23.4292 4.53567 23.4292 4.71013V20.4106C23.4292 22.4749 21.7938 24.1322 19.8203 24.1322H11.7851C11.6723 24.1322 11.5595 24.2194 11.5031 24.3357L10.9673 25.7894C10.8827 25.9929 11.0237 26.2255 11.2493 26.2255H20.2713C23.1472 26.2255 25.4591 23.8414 25.4591 20.8758V2.64581C25.4591 2.47136 25.3181 2.32598 25.1489 2.32598H11.7287C6.4845 2.32598 2.2555 6.68723 2.2555 12.0951V26.778C2.2555 26.8652 2.2837 26.9524 2.3401 27.0106L3.74985 28.4643C3.94725 28.6678 4.2854 28.5225 4.2854 28.2317ZM10.7983 21.4863V12.5313C10.7983 11.7753 11.3903 11.1648 12.1517 11.1648H20.8353C21.0045 11.1648 21.1455 11.3101 21.1455 11.4846V20.4396C21.1455 21.1956 20.5535 21.8353 19.8203 21.8353H11.1085C10.9393 21.8062 10.7983 21.6608 10.7983 21.4863ZM20.2713 30.6449C25.4871 30.6449 29.7163 26.2546 29.7163 20.8758V6.19295C29.7163 6.10573 29.6881 6.01849 29.6317 5.96036L28.2219 4.50659C28.0245 4.30309 27.6864 4.44846 27.6864 4.73921V20.9049C27.6864 25.1498 24.3593 28.5806 20.2431 28.5806H8.8528C8.6836 28.5806 8.5426 28.4352 8.5426 28.2608V12.5603C8.5426 10.496 10.1779 8.83876 12.1515 8.83876H20.1867C20.2995 8.83876 20.4123 8.75155 20.4687 8.63522L21.0042 7.18148C21.0889 6.97798 20.9479 6.74536 20.7225 6.74536H11.7285C8.8528 6.74536 6.5409 9.15859 6.5409 12.0951V30.3251C6.5409 30.4996 6.6819 30.6449 6.8511 30.6449H20.2713Z" fill="#012939"/>
</svg>
